<svg width="344" height="92" viewBox="0 0 344 92" fill="none" xmlns="http://www.w3.org/2000/svg">
<rect x="1.25" y="1.25" width="340.817" height="89.5" rx="3.75" fill="#232551" stroke="#4F5174" stroke-width="2.5"/>
<path d="M95.988 36.52C98.8813 36.52 101.149 37.3227 102.792 38.928C104.453 40.5147 105.284 42.792 105.284 45.76C105.284 48.728 104.453 51.0147 102.792 52.62C101.149 54.2067 98.8813 55 95.988 55H90.024V36.52H95.988ZM96.212 52.9C98.3213 52.9 99.964 52.2747 101.14 51.024C102.335 49.7547 102.932 48 102.932 45.76C102.932 43.52 102.335 41.7747 101.14 40.524C99.964 39.2547 98.3213 38.62 96.212 38.62H92.264V52.9H96.212ZM115.636 55.28C114.31 55.28 113.125 54.9907 112.08 54.412C111.053 53.8333 110.25 53.0027 109.672 51.92C109.093 50.8187 108.804 49.512 108.804 48C108.804 46.488 109.093 45.1907 109.672 44.108C110.25 43.0067 111.044 42.1667 112.052 41.588C113.06 41.0093 114.208 40.72 115.496 40.72C116.802 40.72 117.913 41 118.828 41.56C119.761 42.12 120.47 42.8853 120.956 43.856C121.441 44.808 121.684 45.8813 121.684 47.076C121.684 47.3933 121.674 47.6827 121.656 47.944C121.637 48.2053 121.609 48.4387 121.572 48.644H110.26V46.656H120.592L119.444 46.88C119.444 45.536 119.07 44.5 118.324 43.772C117.596 43.044 116.634 42.68 115.44 42.68C114.525 42.68 113.732 42.8947 113.06 43.324C112.406 43.7347 111.893 44.3413 111.52 45.144C111.165 45.928 110.988 46.88 110.988 48C110.988 49.1013 111.174 50.0533 111.548 50.856C111.921 51.6587 112.444 52.2747 113.116 52.704C113.806 53.1147 114.628 53.32 115.58 53.32C116.606 53.32 117.437 53.124 118.072 52.732C118.725 52.34 119.248 51.808 119.64 51.136L121.404 52.172C121.049 52.8067 120.592 53.3573 120.032 53.824C119.49 54.2907 118.846 54.6547 118.1 54.916C117.372 55.1587 116.55 55.28 115.636 55.28ZM125.944 60.88V41H127.904L128.1 44.416L127.792 44.024C128.035 43.3707 128.399 42.8013 128.884 42.316C129.369 41.812 129.957 41.42 130.648 41.14C131.339 40.86 132.085 40.72 132.888 40.72C134.027 40.72 135.072 41.0093 136.024 41.588C136.995 42.1667 137.769 42.9973 138.348 44.08C138.927 45.1627 139.216 46.4693 139.216 48C139.216 49.512 138.917 50.8187 138.32 51.92C137.741 53.0027 136.967 53.8333 135.996 54.412C135.025 54.9907 133.961 55.28 132.804 55.28C131.647 55.28 130.629 55 129.752 54.44C128.893 53.8613 128.277 53.1333 127.904 52.256L128.184 51.836V60.88H125.944ZM132.58 53.32C133.961 53.32 135.035 52.8347 135.8 51.864C136.584 50.8933 136.976 49.6053 136.976 48C136.976 46.3947 136.593 45.1067 135.828 44.136C135.081 43.1653 134.027 42.68 132.664 42.68C131.768 42.68 130.984 42.904 130.312 43.352C129.64 43.7813 129.117 44.3973 128.744 45.2C128.371 45.984 128.184 46.9173 128.184 48C128.184 49.064 128.361 49.9973 128.716 50.8C129.089 51.6027 129.603 52.228 130.256 52.676C130.928 53.1053 131.703 53.32 132.58 53.32ZM145.627 34.56V51.444C145.627 52.1533 145.757 52.648 146.019 52.928C146.28 53.1893 146.7 53.32 147.279 53.32C147.652 53.32 147.96 53.292 148.203 53.236C148.445 53.18 148.772 53.0773 149.183 52.928L148.819 54.888C148.52 55.0187 148.193 55.112 147.839 55.168C147.484 55.2427 147.12 55.28 146.747 55.28C145.608 55.28 144.759 54.972 144.199 54.356C143.657 53.74 143.387 52.7973 143.387 51.528V34.56H145.627ZM157.853 40.72C159.178 40.72 160.345 41.0093 161.353 41.588C162.38 42.1667 163.182 43.0067 163.761 44.108C164.34 45.1907 164.629 46.488 164.629 48C164.629 49.512 164.34 50.8187 163.761 51.92C163.182 53.0027 162.38 53.8333 161.353 54.412C160.345 54.9907 159.178 55.28 157.853 55.28C156.546 55.28 155.38 54.9907 154.353 54.412C153.326 53.8333 152.524 53.0027 151.945 51.92C151.366 50.8187 151.077 49.512 151.077 48C151.077 46.488 151.366 45.1907 151.945 44.108C152.524 43.0067 153.326 42.1667 154.353 41.588C155.38 41.0093 156.546 40.72 157.853 40.72ZM157.853 42.652C156.901 42.652 156.089 42.8667 155.417 43.296C154.745 43.7253 154.222 44.3413 153.849 45.144C153.494 45.928 153.317 46.88 153.317 48C153.317 49.1013 153.494 50.0533 153.849 50.856C154.222 51.6587 154.745 52.2747 155.417 52.704C156.089 53.1333 156.901 53.348 157.853 53.348C158.805 53.348 159.617 53.1333 160.289 52.704C160.961 52.2747 161.474 51.6587 161.829 50.856C162.202 50.0533 162.389 49.1013 162.389 48C162.389 46.88 162.202 45.928 161.829 45.144C161.474 44.3413 160.961 43.7253 160.289 43.296C159.617 42.8667 158.805 42.652 157.853 42.652ZM179.944 41L173.364 57.352C173.009 58.2667 172.617 58.9853 172.188 59.508C171.777 60.0493 171.311 60.432 170.788 60.656C170.284 60.8987 169.696 61.02 169.024 61.02C168.389 61.02 167.801 60.9267 167.26 60.74C166.737 60.572 166.271 60.3387 165.86 60.04L166.476 58.08C166.849 58.416 167.241 58.6587 167.652 58.808C168.081 58.976 168.501 59.06 168.912 59.06C169.397 59.06 169.855 58.9107 170.284 58.612C170.713 58.3133 171.105 57.7067 171.46 56.792L172.188 54.972L170.788 51.64L166.336 41H168.884L172.384 50.128L173.252 52.62L174.26 49.848L177.536 41H179.944ZM194.463 37.024V51.136C194.463 51.8267 194.659 52.34 195.051 52.676C195.443 53.012 195.947 53.18 196.563 53.18C197.104 53.18 197.571 53.0867 197.963 52.9C198.355 52.7133 198.709 52.4613 199.027 52.144L199.811 54.02C199.381 54.412 198.868 54.72 198.271 54.944C197.692 55.168 197.02 55.28 196.255 55.28C195.545 55.28 194.883 55.1587 194.267 54.916C193.651 54.6547 193.156 54.2533 192.783 53.712C192.428 53.152 192.241 52.424 192.223 51.528V37.64L194.463 37.024ZM199.559 41V42.932H189.423V41H199.559ZM208.685 40.72C210.01 40.72 211.177 41.0093 212.185 41.588C213.212 42.1667 214.014 43.0067 214.593 44.108C215.172 45.1907 215.461 46.488 215.461 48C215.461 49.512 215.172 50.8187 214.593 51.92C214.014 53.0027 213.212 53.8333 212.185 54.412C211.177 54.9907 210.01 55.28 208.685 55.28C207.378 55.28 206.212 54.9907 205.185 54.412C204.158 53.8333 203.356 53.0027 202.777 51.92C202.198 50.8187 201.909 49.512 201.909 48C201.909 46.488 202.198 45.1907 202.777 44.108C203.356 43.0067 204.158 42.1667 205.185 41.588C206.212 41.0093 207.378 40.72 208.685 40.72ZM208.685 42.652C207.733 42.652 206.921 42.8667 206.249 43.296C205.577 43.7253 205.054 44.3413 204.681 45.144C204.326 45.928 204.149 46.88 204.149 48C204.149 49.1013 204.326 50.0533 204.681 50.856C205.054 51.6587 205.577 52.2747 206.249 52.704C206.921 53.1333 207.733 53.348 208.685 53.348C209.637 53.348 210.449 53.1333 211.121 52.704C211.793 52.2747 212.306 51.6587 212.661 50.856C213.034 50.0533 213.221 49.1013 213.221 48C213.221 46.88 213.034 45.928 212.661 45.144C212.306 44.3413 211.793 43.7253 211.121 43.296C210.449 42.8667 209.637 42.652 208.685 42.652ZM236.165 36.52C237.416 36.52 238.499 36.7533 239.413 37.22C240.347 37.668 241.075 38.312 241.597 39.152C242.12 39.992 242.381 40.9907 242.381 42.148C242.381 43.3053 242.12 44.304 241.597 45.144C241.075 45.984 240.347 46.6373 239.413 47.104C238.499 47.552 237.416 47.776 236.165 47.776H231.881V55H229.641V36.52H236.165ZM235.829 45.676C237.285 45.676 238.349 45.3773 239.021 44.78C239.693 44.164 240.029 43.2867 240.029 42.148C240.029 40.9907 239.693 40.1133 239.021 39.516C238.349 38.9187 237.285 38.62 235.829 38.62H231.881V45.676H235.829ZM251.861 40.72C253.186 40.72 254.353 41.0093 255.361 41.588C256.388 42.1667 257.19 43.0067 257.769 44.108C258.348 45.1907 258.637 46.488 258.637 48C258.637 49.512 258.348 50.8187 257.769 51.92C257.19 53.0027 256.388 53.8333 255.361 54.412C254.353 54.9907 253.186 55.28 251.861 55.28C250.554 55.28 249.388 54.9907 248.361 54.412C247.334 53.8333 246.532 53.0027 245.953 51.92C245.374 50.8187 245.085 49.512 245.085 48C245.085 46.488 245.374 45.1907 245.953 44.108C246.532 43.0067 247.334 42.1667 248.361 41.588C249.388 41.0093 250.554 40.72 251.861 40.72ZM251.861 42.652C250.909 42.652 250.097 42.8667 249.425 43.296C248.753 43.7253 248.23 44.3413 247.857 45.144C247.502 45.928 247.325 46.88 247.325 48C247.325 49.1013 247.502 50.0533 247.857 50.856C248.23 51.6587 248.753 52.2747 249.425 52.704C250.097 53.1333 250.909 53.348 251.861 53.348C252.813 53.348 253.625 53.1333 254.297 52.704C254.969 52.2747 255.482 51.6587 255.837 50.856C256.21 50.0533 256.397 49.1013 256.397 48C256.397 46.88 256.21 45.928 255.837 45.144C255.482 44.3413 254.969 43.7253 254.297 43.296C253.625 42.8667 252.813 42.652 251.861 42.652ZM262.854 55V41H264.674L264.982 43.296C265.374 42.4373 265.943 41.7933 266.69 41.364C267.455 40.9347 268.379 40.72 269.462 40.72C269.705 40.72 269.966 40.7387 270.246 40.776C270.545 40.8133 270.797 40.888 271.002 41L270.61 43.044C270.405 42.9693 270.181 42.9133 269.938 42.876C269.695 42.8387 269.35 42.82 268.902 42.82C268.323 42.82 267.735 42.988 267.138 43.324C266.559 43.66 266.074 44.1733 265.682 44.864C265.29 45.536 265.094 46.3947 265.094 47.44V55H262.854ZM276.74 37.024V51.136C276.74 51.8267 276.936 52.34 277.328 52.676C277.72 53.012 278.224 53.18 278.84 53.18C279.381 53.18 279.848 53.0867 280.24 52.9C280.632 52.7133 280.987 52.4613 281.304 52.144L282.088 54.02C281.659 54.412 281.145 54.72 280.548 54.944C279.969 55.168 279.297 55.28 278.532 55.28C277.823 55.28 277.16 55.1587 276.544 54.916C275.928 54.6547 275.433 54.2533 275.06 53.712C274.705 53.152 274.519 52.424 274.5 51.528V37.64L276.74 37.024ZM281.836 41V42.932H271.7V41H281.836ZM291.019 55.28C289.693 55.28 288.508 54.9907 287.463 54.412C286.436 53.8333 285.633 53.0027 285.055 51.92C284.476 50.8187 284.187 49.512 284.187 48C284.187 46.488 284.476 45.1907 285.055 44.108C285.633 43.0067 286.427 42.1667 287.435 41.588C288.443 41.0093 289.591 40.72 290.879 40.72C292.185 40.72 293.296 41 294.211 41.56C295.144 42.12 295.853 42.8853 296.339 43.856C296.824 44.808 297.067 45.8813 297.067 47.076C297.067 47.3933 297.057 47.6827 297.039 47.944C297.02 48.2053 296.992 48.4387 296.954 48.644H285.643V46.656H295.975L294.827 46.88C294.827 45.536 294.453 44.5 293.707 43.772C292.979 43.044 292.017 42.68 290.823 42.68C289.908 42.68 289.115 42.8947 288.443 43.324C287.789 43.7347 287.276 44.3413 286.903 45.144C286.548 45.928 286.371 46.88 286.371 48C286.371 49.1013 286.557 50.0533 286.931 50.856C287.304 51.6587 287.827 52.2747 288.499 52.704C289.189 53.1147 290.011 53.32 290.963 53.32C291.989 53.32 292.82 53.124 293.455 52.732C294.108 52.34 294.631 51.808 295.023 51.136L296.787 52.172C296.432 52.8067 295.975 53.3573 295.415 53.824C294.873 54.2907 294.229 54.6547 293.483 54.916C292.755 55.1587 291.933 55.28 291.019 55.28ZM301.327 55V41H303.147L303.455 43.296C303.847 42.4373 304.416 41.7933 305.163 41.364C305.928 40.9347 306.852 40.72 307.935 40.72C308.177 40.72 308.439 40.7387 308.719 40.776C309.017 40.8133 309.269 40.888 309.475 41L309.083 43.044C308.877 42.9693 308.653 42.9133 308.411 42.876C308.168 42.8387 307.823 42.82 307.375 42.82C306.796 42.82 306.208 42.988 305.611 43.324C305.032 43.66 304.547 44.1733 304.155 44.864C303.763 45.536 303.567 46.3947 303.567 47.44V55H301.327Z" fill="white"/>
<path d="M53.0016 33.9935C57.7293 30.3918 62.8635 30.6003 62.8635 30.6003L47.3413 50.5547L44.8215 48.5946L44.846 47.449L37.743 48.0383L43.5285 40.6007L47.2406 40.2854C47.2406 40.2854 48.274 37.5952 53.0016 33.9935Z" fill="white"/>
<path d="M61.9185 40.9416C64.2463 35.4732 62.781 30.5481 62.781 30.5481L47.2588 50.5025L49.7786 52.4626L50.883 52.157L52.0594 59.1867L57.8449 51.7491L57.2373 48.0736C57.2373 48.0736 59.5906 46.4101 61.9185 40.9416Z" fill="white"/>
<path d="M43.7436 51.8302L45.3015 53.0421L36.1366 64.824C36.1366 64.824 34.9254 60.4875 37.9803 56.5602C41.0353 52.6329 43.7436 51.8302 43.7436 51.8302Z" fill="#747691"/>
<path d="M46.9847 54.3521L45.2321 52.9887L36.0671 64.7707C36.0671 64.7707 40.9254 65.1555 43.9803 61.2282C47.0353 57.3009 46.9847 54.3521 46.9847 54.3521Z" fill="#747691"/>
</svg>
